<svg width="28" height="28" viewBox="0 0 28 28" xmlns="http://www.w3.org/2000/svg">
    <path d="M14 1C6.84 1 1 6.84 1 14s5.84 13 13 13 13-5.84 13-13S21.16 1 14 1zm0 24.87a11.725 11.725 0 0 1-8.403-3.505c2.299-3.09 5.275-4.785 8.403-4.785s6.104 1.695 8.403 4.785A11.724 11.724 0 0 1 14 25.87zm0-9.798a4.294 4.294 0 0 1-4.296-4.295A4.294 4.294 0 0 1 14 7.48a4.294 4.294 0 0 1 4.296 4.296A4.294 4.294 0 0 1 14 16.072zm9.157 5.464c-1.922-2.562-4.296-4.22-6.896-4.823a5.418 5.418 0 0 0 3.165-4.936A5.427 5.427 0 0 0 14 6.35a5.427 5.427 0 0 0-5.426 5.426c0 2.185 1.319 4.07 3.165 4.936-2.6.603-4.974 2.261-6.896 4.786a11.746 11.746 0 0 1-2.713-7.537c0-6.556 5.313-11.87 11.87-11.87 6.557 0 11.87 5.351 11.87 11.908 0 2.864-1.018 5.464-2.714 7.536z" fill="#1C1C1E" fill-rule="nonzero" stroke="#1C1C1E" stroke-width=".4"/>
</svg>
